
<svg
  version="1.0"
  xmlns="http://www.w3.org/2000/svg"
  xmlns:xlink="http://www.w3.org/1999/xlink"
  width="2400"
  height="1800"
>
  
  <rect
    x="0"
    y="0"
    width="100%"
    height="100%"
    fill="rgba(255,255,255,0)"
    fill-opacity="1"
  ></rect>
  <svg
    version="1.0"
    xmlns="http://www.w3.org/2000/svg"
    xmlns:xlink="http://www.w3.org/1999/xlink"
    x="0"
    y="0"
    width="2400"
    height="1800"
    viewBox="0 0 340.000000 250.000000"
    preserveAspectRatio="xMidYMid meet"

    color-interpolation-filters="sRGB"
  >
    <defs><linearGradient id="92" x1="0%" y1="0%" x2="100%" y2="0%"><stop offset="0%" stop-color="#fa71cd"/> <stop offset="100%" stop-color="#9b59b6"/></linearGradient><linearGradient id="93" x1="0%" y1="0%" x2="100%" y2="0%"><stop offset="0%" stop-color="#f9d423"/> <stop offset="100%" stop-color="#f83600"/></linearGradient><linearGradient id="94" x1="0%" y1="0%" x2="100%" y2="0%"><stop offset="0%" stop-color="#0064d2"/> <stop offset="100%" stop-color="#1cb0f6"/></linearGradient><linearGradient id="95" x1="0%" y1="0%" x2="100%" y2="0%"><stop offset="0%" stop-color="#f00978"/> <stop offset="100%" stop-color="#3f51b1"/></linearGradient><linearGradient id="96" x1="0%" y1="0%" x2="100%" y2="0%"><stop offset="0%" stop-color="#7873f5"/> <stop offset="100%" stop-color="#ec77ab"/></linearGradient><linearGradient id="97" x1="0%" y1="0%" x2="100%" y2="0%"><stop offset="0%" stop-color="#f9d423"/> <stop offset="100%" stop-color="#e14fad"/></linearGradient><linearGradient id="98" x1="0%" y1="0%" x2="100%" y2="0%"><stop offset="0%" stop-color="#009efd"/> <stop offset="100%" stop-color="#2af598"/></linearGradient><linearGradient id="99" x1="0%" y1="0%" x2="100%" y2="0%"><stop offset="0%" stop-color="#ffcc00"/> <stop offset="100%" stop-color="#00b140"/></linearGradient><linearGradient id="100" x1="0%" y1="0%" x2="100%" y2="0%"><stop offset="0%" stop-color="#d51007"/> <stop offset="100%" stop-color="#ff8177"/></linearGradient><linearGradient id="102" x1="0%" y1="0%" x2="100%" y2="0%"><stop offset="0%" stop-color="#a2b6df"/> <stop offset="100%" stop-color="#0c3483"/></linearGradient><linearGradient id="103" x1="0%" y1="0%" x2="100%" y2="0%"><stop offset="0%" stop-color="#7ac5d8"/> <stop offset="100%" stop-color="#eea2a2"/></linearGradient><linearGradient id="104" x1="0%" y1="0%" x2="100%" y2="0%"><stop offset="0%" stop-color="#00ecbc"/> <stop offset="100%" stop-color="#007adf"/></linearGradient><linearGradient id="105" x1="0%" y1="0%" x2="100%" y2="0%"><stop offset="0%" stop-color="#b88746"/> <stop offset="100%" stop-color="#fdf5a6"/></linearGradient></defs> <g fill="#4481eb" class="icon-text-wrapper icon-svg-group iconsvg" transform="translate(46.48999786376953,80.43000030517578)"><g class="iconsvg-imagesvg" transform="translate(93.51000213623047,0)" mask="url(#07ef2b63-b082-448f-bcaa-68ee9aa2c025)"><g><rect fill="#4481eb" fill-opacity="0" stroke-width="2" x="0" y="0" width="60" height="60" class="image-rect"/> <svg filter="url(#colors6894012469)" x="0" y="0" width="60" height="60" filtersec="colorsf8519965063" class="image-svg-svg primary" style="overflow: visible;"><svg xmlns="http://www.w3.org/2000/svg" xmlns:xlink="http://www.w3.org/1999/xlink" version="1.1" x="0px" y="0px" viewBox="2 2 60 60" enable-background="new 0 0 64 64" xml:space="preserve"><g><path d="M61.271,27.288l-5.035-1.417c-0.593-2.351-1.521-4.591-2.766-6.674l2.56-4.563c0.219-0.391,0.152-0.879-0.165-1.196   l-5.303-5.303c-0.315-0.316-0.805-0.384-1.196-0.165l-4.563,2.56c-2.083-1.245-4.322-2.173-6.673-2.766l-1.417-5.035   C36.591,2.298,36.198,2,35.75,2h-7.5c-0.448,0-0.841,0.298-0.962,0.729l-1.417,5.035c-2.351,0.593-4.591,1.521-6.673,2.766   l-4.563-2.56c-0.39-0.219-0.879-0.151-1.196,0.165l-5.303,5.303c-0.317,0.317-0.384,0.806-0.165,1.196l2.56,4.563   c-1.245,2.083-2.173,4.323-2.766,6.674l-5.035,1.417C2.298,27.409,2,27.802,2,28.25v7.5c0,0.448,0.298,0.841,0.729,0.962   l5.035,1.417c0.592,2.351,1.521,4.59,2.766,6.674l-2.56,4.563c-0.219,0.391-0.152,0.879,0.165,1.196l5.303,5.303   c0.317,0.316,0.806,0.385,1.196,0.165l4.563-2.56c2.083,1.245,4.323,2.173,6.674,2.766l1.417,5.035   C27.409,61.702,27.802,62,28.25,62h7.5c0.448,0,0.841-0.298,0.962-0.729l1.417-5.035c2.351-0.592,4.591-1.521,6.674-2.766   l4.563,2.56c0.392,0.22,0.881,0.151,1.196-0.165l5.303-5.303c0.317-0.317,0.384-0.806,0.165-1.196l-2.56-4.563   c1.245-2.083,2.173-4.323,2.766-6.674l5.035-1.417C61.702,36.591,62,36.198,62,35.75v-7.5C62,27.802,61.702,27.409,61.271,27.288z    M60,34.993l-4.871,1.37c-0.353,0.099-0.623,0.384-0.704,0.741c-0.575,2.537-1.571,4.94-2.959,7.143   c-0.196,0.31-0.206,0.703-0.026,1.022l2.476,4.414l-4.232,4.232l-4.414-2.476c-0.319-0.179-0.712-0.169-1.022,0.026   c-2.203,1.389-4.606,2.384-7.143,2.959c-0.357,0.081-0.642,0.351-0.741,0.704L34.993,60h-5.985l-1.37-4.871   c-0.099-0.353-0.384-0.623-0.741-0.704c-2.537-0.575-4.94-1.571-7.143-2.959c-0.31-0.196-0.702-0.206-1.022-0.026l-4.414,2.476   l-4.232-4.232l2.476-4.414c0.18-0.32,0.169-0.712-0.026-1.022c-1.389-2.204-2.385-4.606-2.96-7.143   c-0.081-0.357-0.351-0.642-0.704-0.741L4,34.993v-5.985l4.871-1.37c0.353-0.099,0.623-0.384,0.704-0.741   c0.575-2.536,1.571-4.939,2.96-7.143c0.195-0.31,0.206-0.703,0.026-1.022l-2.476-4.414l4.232-4.232l4.415,2.476   c0.32,0.18,0.713,0.17,1.022-0.026c2.203-1.389,4.605-2.384,7.142-2.959c0.357-0.081,0.642-0.351,0.741-0.704L29.007,4h5.985   l1.37,4.871c0.099,0.353,0.384,0.623,0.741,0.704c2.537,0.575,4.939,1.571,7.142,2.959c0.311,0.196,0.703,0.206,1.022,0.026   l4.415-2.476l4.232,4.232l-2.476,4.414c-0.18,0.32-0.169,0.712,0.026,1.022c1.388,2.202,2.384,4.605,2.959,7.143   c0.081,0.357,0.351,0.642,0.704,0.741L60,29.007V34.993z"/><path d="M32,11c-11.58,0-21,9.42-21,21s9.42,21,21,21s21-9.42,21-21S43.58,11,32,11z M32,51c-10.477,0-19-8.523-19-19   s8.523-19,19-19s19,8.523,19,19S42.477,51,32,51z"/><path d="M32,15c-9.374,0-17,7.626-17,17s7.626,17,17,17s17-7.626,17-17S41.374,15,32,15z M46.125,37H37c-0.552,0-1,0.448-1,1v3   h-3.184c-0.414-1.161-1.514-2-2.816-2c-1.654,0-3,1.346-3,3s1.346,3,3,3c1.302,0,2.402-0.839,2.816-2H37c0.552,0,1-0.448,1-1v-3   h7.256c-2.52,4.752-7.513,8-13.256,8c-4.427,0-8.4-1.939-11.149-5H21v-7h2v1c0,0.552,0.448,1,1,1h4c0.552,0,1-0.448,1-1v-4   c0-0.552-0.448-1-1-1h-4c-0.552,0-1,0.448-1,1v1h-3c-0.552,0-1,0.448-1,1v5.451c-1.265-2.198-2-4.738-2-7.451   c0-3.379,1.136-6.49,3.029-9H23v3c0,0.552,0.448,1,1,1h3.184c0.414,1.161,1.514,2,2.816,2c1.654,0,3-1.346,3-3s-1.346-3-3-3   c-1.302,0-2.402,0.839-2.816,2H25v-3c0-0.552-0.448-1-1-1h-2.163c2.212-2.045,5.033-3.431,8.163-3.851V21c0,0.552,0.448,1,1,1h5v7   h-1c-0.552,0-1,0.448-1,1v4c0,0.552,0.448,1,1,1h4c0.552,0,1-0.448,1-1v-4c0-0.552-0.448-1-1-1h-1v-8c0-0.552-0.448-1-1-1h-5v-3   c8.271,0,15,6.729,15,15C47,33.755,46.681,35.433,46.125,37z M31,42c0,0.551-0.449,1-1,1s-1-0.449-1-1s0.449-1,1-1S31,41.449,31,42   z M25,35v-2h2v2H25z M29,26c0-0.551,0.449-1,1-1s1,0.449,1,1s-0.449,1-1,1S29,26.551,29,26z M38,31v2h-2v-2H38z"/><rect x="31" y="6" width="2" height="2"/><rect x="41" y="26" width="2" height="2"/><rect x="42" y="31" width="2" height="2"/><rect x="20" y="28" width="2" height="2"/><rect x="31" y="36" width="2" height="2"/><rect x="23" y="40" width="2" height="2"/><rect x="48.678" y="13.322" transform="matrix(0.7071 -0.7071 0.7071 0.7071 4.4229 39.3224)" width="2" height="2"/><rect x="56" y="31" width="2" height="2"/><rect x="48.678" y="48.678" transform="matrix(0.7071 -0.7071 0.7071 0.7071 -20.5772 49.6777)" width="2" height="2"/><rect x="31" y="56" width="2" height="2"/><rect x="13.322" y="48.678" transform="matrix(0.7071 -0.7071 0.7071 0.7071 -30.9326 24.6776)" width="2" height="2"/><rect x="6" y="31" width="2" height="2"/><rect x="13.322" y="13.322" transform="matrix(0.7071 -0.7071 0.7071 0.7071 -5.9325 14.3223)" width="2" height="2"/></g></svg></svg> <defs><filter id="colors6894012469"><feColorMatrix type="matrix" values="0 0 0 0 0.265625  0 0 0 0 0.50390625  0 0 0 0 0.91796875  0 0 0 1 0" class="icon-feColorMatrix "/></filter> <filter id="colorsf8519965063"><feColorMatrix type="matrix" values="0 0 0 0 0.99609375  0 0 0 0 0.99609375  0 0 0 0 0.99609375  0 0 0 1 0" class="icon-fecolormatrix"/></filter> <filter id="colorsb4221553832"><feColorMatrix type="matrix" values="0 0 0 0 0  0 0 0 0 0  0 0 0 0 0  0 0 0 1 0" class="icon-fecolormatrix"/></filter></defs></g><rect v-gra="id" width="72" height="72" transform="translate(-6, -6)" style="pointer-events:none;" fill="url(#_xkHL-LbQJobwN0dEW43V)"/></g> <g transform="translate(0,67)"><g fill-rule="" class="tp-name iconsvg-namesvg" fill="url(#46944fed-3b2c-469f-b149-1bfefe7bbfc8)"><g transform="scale(1)"><g><path d="M2.09 0L6.24 0 6.24-9.28 17.28-9.28 17.28 0 21.43 0 21.43-21.52 17.28-21.52 17.28-13.22 6.24-13.22 6.24-21.52 2.09-21.52ZM35.78-21.83L35.78-17.89C39.84-17.89 42.92-15.56 42.92-10.76 42.92-5.96 39.84-3.6 35.78-3.6 31.85-3.6 28.81-5.96 28.81-10.76 28.81-10.76 24.63-10.76 24.63-10.76 24.63-3.66 29.57 0.31 35.78 0.31 42.15 0.31 47.07-3.35 47.07-10.76 47.07-17.83 42.15-21.83 35.78-21.83ZM64.84 0L68.89 0 68.89-21.52 64.93-21.52 64.93-6.7 64.78-6.7 54.38-21.52 50.11-21.52ZM50.3 0L54.32 0 54.32-10.54 50.3-16.29ZM75.84-21.52L71.39-21.52 78.36-11.19 78.36-11.13 70.68 0 75.35 0 80.55-7.99 80.67-7.99 85.96 0 90.48 0 83.04-10.91 83.04-10.98 89.8-21.52 85.4-21.52 80.88-14.14 80.76-14.14ZM100.93-7.29C106.46-7.29 108.74-10.67 108.74-14.6 108.74-18.48 106.77-21.52 100.93-21.52L92.44-21.52 92.44-17.89 100.22-17.89C103.17-17.89 104.37-16.72 104.37-14.48 104.37-12.24 102.93-10.91 100.25-10.91L92.44-10.91 92.44 0 96.59 0 96.59-7.29ZM130.9 0L135.05 0 135.05-7.59 139.88-7.59 143.91 0 148.58 0 143.57-8.3C146.18-9.59 147.35-12.42 147.35-14.73 147.35-19.06 144.65-21.52 139.79-21.52L111.04-21.52 111.04-17.77 139.33-17.77C142.09-17.77 143.45-16.75 143.45-14.63 143.45-12.36 141.85-11.04 139.36-11.04L130.9-11.04ZM126.97-8.85L126.97-12.67 111.04-12.67 111.04-8.85ZM111.04 0L126.97 0 126.97-4.06 111.04-4.06ZM148.49-21.52L148.49-17.49 165.58-17.49 165.58-21.52ZM154.98-14.76L154.98 0 159.13 0 159.13-14.76ZM176.99 0.31C183.11 0.31 186.43-3.29 187.13-7.75L182.92-7.75C182.21-5.07 180.03-3.32 176.86-3.32 172.65-3.32 169.98-7.04 169.98-11.07 169.98-15.31 172.96-18.17 176.8-18.17 180.46-18.17 182.37-16.11 182.98-13.56L187.13-13.56C186.52-18.85 182.37-21.83 176.53-21.83 169.98-21.83 165.92-16.88 165.92-10.76 165.92-4.67 169.64 0.31 176.99 0.31ZM201.21-21.52L195.96-21.52 188.24 0 192.73 0 198.45-17.06 198.75-17.06 204.87 0 209.67 0ZM216.09-6.43L216.09-21.52 211.91-21.52 211.91-6.43ZM211.91 0L227.56 0 227.56-4.06 211.91-4.06ZM238.96 0.31C245.08 0.31 248.4-3.29 249.11-7.75L244.9-7.75C244.19-5.07 242.01-3.32 238.84-3.32 234.63-3.32 231.96-7.04 231.96-11.07 231.96-15.31 234.94-18.17 238.78-18.17 242.44-18.17 244.35-16.11 244.96-13.56L249.11-13.56C248.5-18.85 244.35-21.83 238.5-21.83 231.96-21.83 227.9-16.88 227.9-10.76 227.9-4.67 231.62 0.31 238.96 0.31Z" transform="translate(-2.0899999141693115, 21.829999923706055)"/></g> </g></g> </g></g><defs v-gra="od"><linearGradient x1="0" y1="1" x2="0" y2="0" id="46944fed-3b2c-469f-b149-1bfefe7bbfc8"><stop offset="0%" stop-color="#4481eb"/><stop offset="100%" stop-color="#05befe"/></linearGradient><filter id="42443b3f1de60f6b6fd3b6a9844b4764" filterUnits="objectBoundingBox"><feColorMatrix type="matrix" values="0 0 0 0 0.99609375  0 0 0 0 0.99609375  0 0 0 0 0.99609375  0 0 0 1 0"/></filter></defs><defs v-gra="id"><filter id="ca7dcbff-f96d-406e-aa39-b342efa88db0" filterUnits="userSpaceOnUse"><feColorMatrix type="matrix" values="0 0 0 0 0.99609375  0 0 0 0 0.99609375  0 0 0 0 0.99609375  0 0 0 1 0"/></filter><linearGradient x1="0" y1="1" x2="0" y2="0" id="_xkHL-LbQJobwN0dEW43V"><stop offset="0%" stop-color="#4481eb"/><stop offset="100%" stop-color="#05befe"/></linearGradient><filter id="42443b3f1de60f6b6fd3b6a9844b4764" filterUnits="objectBoundingBox"><feColorMatrix type="matrix" values="0 0 0 0 0.99609375  0 0 0 0 0.99609375  0 0 0 0 0.99609375  0 0 0 1 0"/></filter></defs><mask v-gra="im" id="07ef2b63-b082-448f-bcaa-68ee9aa2c025"><g class="iconsvg-imagesvg" filter="url(#ca7dcbff-f96d-406e-aa39-b342efa88db0)"><g><rect fill="#4481eb" fill-opacity="0" stroke-width="2" x="0" y="0" width="60" height="60" class="image-rect"/> <svg x="0" y="0" width="60" height="60" filtersec="colorsf8519965063" class="image-svg-svg primary" style="overflow: visible;"><svg xmlns="http://www.w3.org/2000/svg" xmlns:xlink="http://www.w3.org/1999/xlink" version="1.1" x="0px" y="0px" viewBox="2 2 60 60" enable-background="new 0 0 64 64" xml:space="preserve"><g><path d="M61.271,27.288l-5.035-1.417c-0.593-2.351-1.521-4.591-2.766-6.674l2.56-4.563c0.219-0.391,0.152-0.879-0.165-1.196   l-5.303-5.303c-0.315-0.316-0.805-0.384-1.196-0.165l-4.563,2.56c-2.083-1.245-4.322-2.173-6.673-2.766l-1.417-5.035   C36.591,2.298,36.198,2,35.75,2h-7.5c-0.448,0-0.841,0.298-0.962,0.729l-1.417,5.035c-2.351,0.593-4.591,1.521-6.673,2.766   l-4.563-2.56c-0.39-0.219-0.879-0.151-1.196,0.165l-5.303,5.303c-0.317,0.317-0.384,0.806-0.165,1.196l2.56,4.563   c-1.245,2.083-2.173,4.323-2.766,6.674l-5.035,1.417C2.298,27.409,2,27.802,2,28.25v7.5c0,0.448,0.298,0.841,0.729,0.962   l5.035,1.417c0.592,2.351,1.521,4.59,2.766,6.674l-2.56,4.563c-0.219,0.391-0.152,0.879,0.165,1.196l5.303,5.303   c0.317,0.316,0.806,0.385,1.196,0.165l4.563-2.56c2.083,1.245,4.323,2.173,6.674,2.766l1.417,5.035   C27.409,61.702,27.802,62,28.25,62h7.5c0.448,0,0.841-0.298,0.962-0.729l1.417-5.035c2.351-0.592,4.591-1.521,6.674-2.766   l4.563,2.56c0.392,0.22,0.881,0.151,1.196-0.165l5.303-5.303c0.317-0.317,0.384-0.806,0.165-1.196l-2.56-4.563   c1.245-2.083,2.173-4.323,2.766-6.674l5.035-1.417C61.702,36.591,62,36.198,62,35.75v-7.5C62,27.802,61.702,27.409,61.271,27.288z    M60,34.993l-4.871,1.37c-0.353,0.099-0.623,0.384-0.704,0.741c-0.575,2.537-1.571,4.94-2.959,7.143   c-0.196,0.31-0.206,0.703-0.026,1.022l2.476,4.414l-4.232,4.232l-4.414-2.476c-0.319-0.179-0.712-0.169-1.022,0.026   c-2.203,1.389-4.606,2.384-7.143,2.959c-0.357,0.081-0.642,0.351-0.741,0.704L34.993,60h-5.985l-1.37-4.871   c-0.099-0.353-0.384-0.623-0.741-0.704c-2.537-0.575-4.94-1.571-7.143-2.959c-0.31-0.196-0.702-0.206-1.022-0.026l-4.414,2.476   l-4.232-4.232l2.476-4.414c0.18-0.32,0.169-0.712-0.026-1.022c-1.389-2.204-2.385-4.606-2.96-7.143   c-0.081-0.357-0.351-0.642-0.704-0.741L4,34.993v-5.985l4.871-1.37c0.353-0.099,0.623-0.384,0.704-0.741   c0.575-2.536,1.571-4.939,2.96-7.143c0.195-0.31,0.206-0.703,0.026-1.022l-2.476-4.414l4.232-4.232l4.415,2.476   c0.32,0.18,0.713,0.17,1.022-0.026c2.203-1.389,4.605-2.384,7.142-2.959c0.357-0.081,0.642-0.351,0.741-0.704L29.007,4h5.985   l1.37,4.871c0.099,0.353,0.384,0.623,0.741,0.704c2.537,0.575,4.939,1.571,7.142,2.959c0.311,0.196,0.703,0.206,1.022,0.026   l4.415-2.476l4.232,4.232l-2.476,4.414c-0.18,0.32-0.169,0.712,0.026,1.022c1.388,2.202,2.384,4.605,2.959,7.143   c0.081,0.357,0.351,0.642,0.704,0.741L60,29.007V34.993z"/><path d="M32,11c-11.58,0-21,9.42-21,21s9.42,21,21,21s21-9.42,21-21S43.58,11,32,11z M32,51c-10.477,0-19-8.523-19-19   s8.523-19,19-19s19,8.523,19,19S42.477,51,32,51z"/><path d="M32,15c-9.374,0-17,7.626-17,17s7.626,17,17,17s17-7.626,17-17S41.374,15,32,15z M46.125,37H37c-0.552,0-1,0.448-1,1v3   h-3.184c-0.414-1.161-1.514-2-2.816-2c-1.654,0-3,1.346-3,3s1.346,3,3,3c1.302,0,2.402-0.839,2.816-2H37c0.552,0,1-0.448,1-1v-3   h7.256c-2.52,4.752-7.513,8-13.256,8c-4.427,0-8.4-1.939-11.149-5H21v-7h2v1c0,0.552,0.448,1,1,1h4c0.552,0,1-0.448,1-1v-4   c0-0.552-0.448-1-1-1h-4c-0.552,0-1,0.448-1,1v1h-3c-0.552,0-1,0.448-1,1v5.451c-1.265-2.198-2-4.738-2-7.451   c0-3.379,1.136-6.49,3.029-9H23v3c0,0.552,0.448,1,1,1h3.184c0.414,1.161,1.514,2,2.816,2c1.654,0,3-1.346,3-3s-1.346-3-3-3   c-1.302,0-2.402,0.839-2.816,2H25v-3c0-0.552-0.448-1-1-1h-2.163c2.212-2.045,5.033-3.431,8.163-3.851V21c0,0.552,0.448,1,1,1h5v7   h-1c-0.552,0-1,0.448-1,1v4c0,0.552,0.448,1,1,1h4c0.552,0,1-0.448,1-1v-4c0-0.552-0.448-1-1-1h-1v-8c0-0.552-0.448-1-1-1h-5v-3   c8.271,0,15,6.729,15,15C47,33.755,46.681,35.433,46.125,37z M31,42c0,0.551-0.449,1-1,1s-1-0.449-1-1s0.449-1,1-1S31,41.449,31,42   z M25,35v-2h2v2H25z M29,26c0-0.551,0.449-1,1-1s1,0.449,1,1s-0.449,1-1,1S29,26.551,29,26z M38,31v2h-2v-2H38z"/><rect x="31" y="6" width="2" height="2"/><rect x="41" y="26" width="2" height="2"/><rect x="42" y="31" width="2" height="2"/><rect x="20" y="28" width="2" height="2"/><rect x="31" y="36" width="2" height="2"/><rect x="23" y="40" width="2" height="2"/><rect x="48.678" y="13.322" transform="matrix(0.7071 -0.7071 0.7071 0.7071 4.4229 39.3224)" width="2" height="2"/><rect x="56" y="31" width="2" height="2"/><rect x="48.678" y="48.678" transform="matrix(0.7071 -0.7071 0.7071 0.7071 -20.5772 49.6777)" width="2" height="2"/><rect x="31" y="56" width="2" height="2"/><rect x="13.322" y="48.678" transform="matrix(0.7071 -0.7071 0.7071 0.7071 -30.9326 24.6776)" width="2" height="2"/><rect x="6" y="31" width="2" height="2"/><rect x="13.322" y="13.322" transform="matrix(0.7071 -0.7071 0.7071 0.7071 -5.9325 14.3223)" width="2" height="2"/></g></svg></svg> <defs><filter id="colors6894012469"><feColorMatrix type="matrix" values="0 0 0 0 0.265625  0 0 0 0 0.50390625  0 0 0 0 0.91796875  0 0 0 1 0" class="icon-fecolormatrix"/></filter> <filter id="colorsf8519965063"><feColorMatrix type="matrix" values="0 0 0 0 0.99609375  0 0 0 0 0.99609375  0 0 0 0 0.99609375  0 0 0 1 0" class="icon-fecolormatrix"/></filter> <filter id="colorsb4221553832"><feColorMatrix type="matrix" values="0 0 0 0 0  0 0 0 0 0  0 0 0 0 0  0 0 0 1 0" class="icon-fecolormatrix"/></filter></defs></g></g></mask>
  </svg>
</svg>


